<svg id="Capa_1" data-name="Capa 1" xmlns="http://www.w3.org/2000/svg" viewBox="0 0 61 61"><defs><style>.cls-1{fill:#fae345;}.cls-2{fill:#373936;}</style></defs><circle class="cls-1" cx="30.5" cy="30.5" r="30.5"/><path class="cls-2" d="M22.69,31.24H38.31a6.69,6.69,0,0,0,0-13.37h-12L29,15.19a1.2,1.2,0,0,0,0-1.68,1.18,1.18,0,0,0-1.67,0l-4.64,4.63a1.2,1.2,0,0,0-.34.84,1.17,1.17,0,0,0,.34.83l4.68,4.68a1.2,1.2,0,0,0,1.67,0,1.18,1.18,0,0,0,0-1.67l-2.59-2.6H38.31a4.33,4.33,0,0,1,0,8.65H22.69a6.69,6.69,0,0,0,0,13.37H32.93l-2.62,2.62a1.18,1.18,0,0,0,0,1.67,1.16,1.16,0,0,0,1.66,0l4.68-4.68a1.17,1.17,0,0,0,0-1.67L32,35.55a1.18,1.18,0,0,0-1.67,0,1.2,1.2,0,0,0,0,1.68L33,39.89H22.69a4.33,4.33,0,0,1,0-8.65Z"/></svg>