<svg xmlns="http://www.w3.org/2000/svg" xmlns:xlink="http://www.w3.org/1999/xlink" viewBox="0 0 106.41 106.41"><defs><style>.cls-1{fill:#424242;}.cls-2{fill:url(#Degradado_sin_nombre_2);}.cls-3{clip-path:url(#clip-path);}.cls-4{fill:#f6694a;}.cls-5{fill:none;stroke:#424242;stroke-linecap:round;stroke-linejoin:round;stroke-width:4.37px;}</style><linearGradient id="Degradado_sin_nombre_2" x1="99.29" y1="26.6" x2="7.12" y2="79.81" gradientTransform="translate(25.37 -16.7) rotate(23.29)" gradientUnits="userSpaceOnUse"><stop offset="0" stop-color="#fcc667"/><stop offset="0.36" stop-color="#fcc667"/><stop offset="0.98" stop-color="#fbae67"/><stop offset="1" stop-color="#fbad67"/></linearGradient><clipPath id="clip-path"><path class="cls-1" d="M53.2,79.86A32.12,32.12,0,0,0,85,52.29a4,4,0,0,0-3.93-4.54H25.34a4,4,0,0,0-3.93,4.54A32.12,32.12,0,0,0,53.2,79.86Z"/></clipPath></defs><g id="Capa_2" data-name="Capa 2"><g id="Capa_1-2" data-name="Capa 1"><circle class="cls-2" cx="53.2" cy="53.2" r="53.2" transform="translate(-16.7 25.37) rotate(-23.29)"/><path class="cls-1" d="M53.2,79.86A32.12,32.12,0,0,0,85,52.29a4,4,0,0,0-3.93-4.54H25.34a4,4,0,0,0-3.93,4.54A32.12,32.12,0,0,0,53.2,79.86Z"/><g class="cls-3"><path class="cls-4" d="M69.26,83.29A16.06,16.06,0,1,1,53.2,67.23,16.06,16.06,0,0,1,69.26,83.29Z"/></g><polyline class="cls-5" points="30.28 25.36 42.77 32.08 30.28 38.41"/><polyline class="cls-5" points="76.13 25.36 63.63 32.08 76.13 38.41"/></g></g></svg>