<svg xmlns="http://www.w3.org/2000/svg" xmlns:xlink="http://www.w3.org/1999/xlink" viewBox="0 0 106.41 106.41"><defs><style>.cls-1{fill:url(#Degradado_sin_nombre_2);}.cls-2{fill:none;stroke:#424242;stroke-linecap:round;stroke-linejoin:round;stroke-width:4.37px;}.cls-3{fill:#81b6e5;}</style><linearGradient id="Degradado_sin_nombre_2" x1="99.29" y1="26.6" x2="7.12" y2="79.81" gradientTransform="translate(25.37 -16.7) rotate(23.29)" gradientUnits="userSpaceOnUse"><stop offset="0" stop-color="#fcc667"/><stop offset="0.36" stop-color="#fcc667"/><stop offset="0.98" stop-color="#fbae67"/><stop offset="1" stop-color="#fbad67"/></linearGradient></defs><g id="Capa_2" data-name="Capa 2"><g id="Capa_1-2" data-name="Capa 1"><circle class="cls-1" cx="53.2" cy="53.2" r="53.2" transform="translate(-16.7 25.37) rotate(-23.29)"/><path class="cls-2" d="M22.89,54.21s1.73,3.63,7.09,3.63,6.61-3.63,6.61-3.63"/><path class="cls-2" d="M68.51,54.21s1.73,3.63,7.08,3.63,6.61-3.63,6.61-3.63"/><path class="cls-2" d="M68.77,82.16s-3.31-8.1-15.7-8.1-15.43,8.1-15.43,8.1"/><path class="cls-3" d="M83.24,62l4.38,12.1a4.93,4.93,0,1,1-9.27,0L82.72,62a.27.27,0,0,1,.36-.16A.23.23,0,0,1,83.24,62Z"/></g></g></svg>