<svg id="Capa_1" data-name="Capa 1" xmlns="http://www.w3.org/2000/svg" viewBox="0 0 44.83 35"><defs><style>.cls-1{fill:#373936;}</style></defs><path class="cls-1" d="M2.8,35A2.78,2.78,0,0,1,0,32.24l0-5V2.77A2.77,2.77,0,0,1,2.77,0H42.05a2.78,2.78,0,0,1,2.78,2.77V25.88a2.78,2.78,0,0,1-2.78,2.77H11.14L4.61,34.32A2.74,2.74,0,0,1,2.8,35ZM3,27.06v.08l0,4.59,6.21-5.4a2.78,2.78,0,0,1,1.82-.68H41.83V3H3ZM42.05,3h0Z"/><path class="cls-1" d="M34.78,12.17H10.28a1.5,1.5,0,0,1,0-3h24.5a1.5,1.5,0,0,1,0,3Z"/><path class="cls-1" d="M34.78,19.73H10.28a1.5,1.5,0,1,1,0-3h24.5a1.5,1.5,0,0,1,0,3Z"/></svg>